<svg width="2394" height="2339" viewBox="0 0 2394 2339" fill="none" xmlns="http://www.w3.org/2000/svg">
<g clip-path="url(#clip0)">
<path d="M850.71 0L1137.39 537.83L1528.84 228.05L850.71 0Z" fill="#00BFBC"/>
<path d="M850.71 850.71L1137.39 1388.54L1528.84 1078.76L850.71 850.71Z" fill="#00BFBC"/>
<path d="M1383.39 961.99L1318.63 1192.56L1248.19 1248.3L1333.34 945.16L1383.39 961.99Z" fill="#FFB400"/>
<path d="M1237.8 913.03L1132 1289.69L1092.32 1215.25L1182.44 894.41L1237.8 913.03Z" fill="#FFB400"/>
<path d="M1312.43 938.13L1218.77 1271.58L1150.95 1325.25L1146.99 1317.81L1258.71 920.06L1312.43 938.13Z" fill="#FFB400"/>
<path d="M1542.41 1015.47L1453.07 1086.16L1478.93 994.12L1542.41 1015.47Z" fill="#FFB400"/>
<path d="M1458.02 987.09L1423.65 1109.45L1348.05 1169.28L1404.29 969.02L1458.02 987.09Z" fill="#FFB400"/>
<path d="M1701.42 0L1988.1 537.83L2379.55 228.05L1701.42 0Z" fill="#00BFBC"/>
<path d="M1566.56 637.45L1818.03 483.51L1657.15 303.39L1566.56 637.45Z" fill="#FFB400"/>
<path d="M850.71 0L1137.39 537.83L1528.84 228.05L850.71 0Z" fill="#00BFBC"/>
<path d="M1701.42 850.71L1988.1 1388.54L2379.55 1078.76L1701.42 850.71Z" fill="#00BFBC"/>
<path d="M1566.56 1488.16L1818.03 1334.22L1657.15 1154.1L1566.56 1488.16Z" fill="#FFB400"/>
<path d="M1566.56 637.45L1818.03 483.51L1657.15 303.39L1566.56 637.45Z" fill="#FFB400"/>
<path d="M1440.09 785.21L1510.9 872.26L1514.33 744.39L1440.09 785.21Z" fill="#00BFBC"/>
<path d="M1870.43 572.03L1832.53 677.65L1943.75 614.46L1870.43 572.03Z" fill="#FFB400"/>
<path d="M2234.1 961.99L2169.34 1192.56L2098.9 1248.3L2184.05 945.16L2234.1 961.99Z" fill="#FFB400"/>
<path d="M2012.24 887.38L1928.04 1187.14L1889.54 1114.89L1958.51 869.32L2012.24 887.38Z" fill="#FFB400"/>
<path d="M2088.51 913.03L1982.71 1289.69L1943.03 1215.25L2033.15 894.41L2088.51 913.03Z" fill="#FFB400"/>
<path d="M1714.98 787.42L1792.02 813.33L1770.2 891.01L1714.98 787.42Z" fill="#FFB400"/>
<path d="M1874.55 1086.78L1838.68 1019.48L1887.56 845.45L1937.61 862.29L1874.55 1086.78Z" fill="#FFB400"/>
<path d="M2163.14 938.13L2069.48 1271.58L2001.66 1325.25L1997.69 1317.81L2109.41 920.06L2163.14 938.13Z" fill="#FFB400"/>
<path d="M1785.18 919.12L1812.92 820.36L1866.65 838.42L1823.69 991.36L1785.18 919.12Z" fill="#FFB400"/>
<path d="M2393.12 1015.47L2303.78 1086.16L2329.64 994.12L2393.12 1015.47Z" fill="#FFB400"/>
<path d="M2308.73 987.09L2274.36 1109.45L2198.76 1169.28L2255 969.02L2308.73 987.09Z" fill="#FFB400"/>
<path d="M850.71 850.71L1137.39 1388.54L1528.84 1078.76L850.71 850.71Z" fill="#00BFBC"/>
<path d="M1383.39 961.99L1318.63 1192.56L1248.19 1248.3L1333.34 945.16L1383.39 961.99Z" fill="#FFB400"/>
<path d="M1161.53 887.38L1077.33 1187.14L1038.83 1114.89L1107.8 869.32L1161.53 887.38Z" fill="#FFB400"/>
<path d="M1237.8 913.03L1132 1289.69L1092.32 1215.25L1182.44 894.41L1237.8 913.03Z" fill="#FFB400"/>
<path d="M864.27 787.42L941.31 813.33L919.49 891.01L864.27 787.42Z" fill="#FFB400"/>
<path d="M1023.84 1086.78L987.97 1019.48L1036.85 845.45L1086.9 862.29L1023.84 1086.78Z" fill="#FFB400"/>
<path d="M1312.43 938.13L1218.77 1271.58L1150.95 1325.25L1146.99 1317.81L1258.71 920.06L1312.43 938.13Z" fill="#FFB400"/>
<path d="M934.47 919.12L962.21 820.36L1015.94 838.42L972.98 991.36L934.47 919.12Z" fill="#FFB400"/>
<path d="M1542.41 1015.47L1453.07 1086.16L1478.93 994.12L1542.41 1015.47Z" fill="#FFB400"/>
<path d="M1458.02 987.09L1423.65 1109.45L1348.05 1169.28L1404.29 969.02L1458.02 987.09Z" fill="#FFB400"/>
<path d="M1566.56 1488.16L1818.03 1334.22L1657.15 1154.1L1566.56 1488.16Z" fill="#FFB400"/>
<path d="M1701.42 0L1988.1 537.83L2379.55 228.05L1701.42 0Z" fill="#00BFBC"/>
<path d="M1701.42 850.71L1988.1 1388.54L2379.55 1078.76L1701.42 850.71Z" fill="#00BFBC"/>
<path d="M2012.24 887.38L1928.04 1187.14L1889.54 1114.89L1958.51 869.32L2012.24 887.38Z" fill="#FFB400"/>
<path d="M2088.51 913.03L1982.71 1289.69L1943.03 1215.25L2033.15 894.41L2088.51 913.03Z" fill="#FFB400"/>
<path d="M1714.98 787.42L1792.02 813.33L1770.2 891.01L1714.98 787.42Z" fill="#FFB400"/>
<path d="M1874.55 1086.78L1838.68 1019.48L1887.56 845.45L1937.61 862.29L1874.55 1086.78Z" fill="#FFB400"/>
<path d="M2163.14 938.13L2069.48 1271.58L2001.66 1325.25L1997.69 1317.81L2109.41 920.06L2163.14 938.13Z" fill="#FFB400"/>
<path d="M1785.18 919.12L1812.92 820.36L1866.65 838.42L1823.69 991.36L1785.18 919.12Z" fill="#FFB400"/>
<path d="M0 0L286.68 537.83L678.13 228.05L0 0Z" fill="#00BFBC"/>
<path d="M0 850.71L286.68 1388.54L678.13 1078.76L0 850.71Z" fill="#00BFBC"/>
<path d="M532.68 961.99L467.92 1192.56L397.48 1248.3L482.63 945.16L532.68 961.99Z" fill="#FFB400"/>
<path d="M387.09 913.03L281.29 1289.69L241.61 1215.25L331.73 894.41L387.09 913.03Z" fill="#FFB400"/>
<path d="M461.72 938.13L368.06 1271.58L300.24 1325.25L296.28 1317.81L408 920.06L461.72 938.13Z" fill="#FFB400"/>
<path d="M691.7 1015.47L602.36 1086.16L628.22 994.12L691.7 1015.47Z" fill="#FFB400"/>
<path d="M607.31 987.09L572.94 1109.45L497.34 1169.28L553.59 969.02L607.31 987.09Z" fill="#FFB400"/>
<path d="M850.71 0L1137.39 537.83L1528.84 228.05L850.71 0Z" fill="#00BFBC"/>
<path d="M715.85 637.45L967.32 483.51L806.44 303.39L715.85 637.45Z" fill="#FFB400"/>
<path d="M0 0L286.68 537.83L678.13 228.05L0 0Z" fill="#00BFBC"/>
<path d="M850.71 850.71L1137.39 1388.54L1528.84 1078.76L850.71 850.71Z" fill="#00BFBC"/>
<path d="M715.85 1488.16L967.32 1334.22L806.44 1154.1L715.85 1488.16Z" fill="#FFB400"/>
<path d="M715.85 637.45L967.32 483.51L806.44 303.39L715.85 637.45Z" fill="#FFB400"/>
<path d="M589.39 785.21L660.19 872.26L663.62 744.39L589.39 785.21Z" fill="#00BFBC"/>
<path d="M1019.72 572.03L981.82 677.65L1093.04 614.46L1019.72 572.03Z" fill="#FFB400"/>
<path d="M1383.39 961.99L1318.63 1192.56L1248.19 1248.3L1333.34 945.16L1383.39 961.99Z" fill="#FFB400"/>
<path d="M1161.53 887.38L1077.33 1187.14L1038.83 1114.89L1107.8 869.32L1161.53 887.38Z" fill="#FFB400"/>
<path d="M1237.8 913.03L1132 1289.69L1092.32 1215.25L1182.44 894.41L1237.8 913.03Z" fill="#FFB400"/>
<path d="M864.27 787.42L941.31 813.33L919.49 891.01L864.27 787.42Z" fill="#FFB400"/>
<path d="M1023.84 1086.78L987.97 1019.48L1036.85 845.45L1086.9 862.29L1023.84 1086.78Z" fill="#FFB400"/>
<path d="M1312.43 938.13L1218.77 1271.58L1150.95 1325.25L1146.99 1317.81L1258.71 920.06L1312.43 938.13Z" fill="#FFB400"/>
<path d="M934.47 919.12L962.21 820.36L1015.94 838.42L972.98 991.36L934.47 919.12Z" fill="#FFB400"/>
<path d="M1542.41 1015.47L1453.07 1086.16L1478.93 994.12L1542.41 1015.47Z" fill="#FFB400"/>
<path d="M1458.02 987.09L1423.65 1109.45L1348.05 1169.28L1404.29 969.02L1458.02 987.09Z" fill="#FFB400"/>
<path d="M0 850.71L286.68 1388.54L678.13 1078.76L0 850.71Z" fill="#00BFBC"/>
<path d="M532.68 961.99L467.92 1192.56L397.48 1248.3L482.63 945.16L532.68 961.99Z" fill="#FFB400"/>
<path d="M310.82 887.38L226.62 1187.14L188.12 1114.89L257.1 869.32L310.82 887.38Z" fill="#FFB400"/>
<path d="M387.09 913.03L281.29 1289.69L241.61 1215.25L331.73 894.41L387.09 913.03Z" fill="#FFB400"/>
<path d="M13.5601 787.42L90.6001 813.33L68.7801 891.01L13.5601 787.42Z" fill="#FFB400"/>
<path d="M173.13 1086.78L137.26 1019.48L186.14 845.45L236.19 862.29L173.13 1086.78Z" fill="#FFB400"/>
<path d="M461.72 938.13L368.06 1271.58L300.24 1325.25L296.28 1317.81L408 920.06L461.72 938.13Z" fill="#FFB400"/>
<path d="M83.76 919.12L111.51 820.36L165.23 838.42L122.27 991.36L83.76 919.12Z" fill="#FFB400"/>
<path d="M691.7 1015.47L602.36 1086.16L628.22 994.12L691.7 1015.47Z" fill="#FFB400"/>
<path d="M607.31 987.09L572.94 1109.45L497.34 1169.28L553.59 969.02L607.31 987.09Z" fill="#FFB400"/>
<path d="M715.85 1488.16L967.32 1334.22L806.44 1154.1L715.85 1488.16Z" fill="#FFB400"/>
<path d="M850.71 0L1137.39 537.83L1528.84 228.05L850.71 0Z" fill="#00BFBC"/>
<path d="M850.71 850.71L1137.39 1388.54L1528.84 1078.76L850.71 850.71Z" fill="#00BFBC"/>
<path d="M1161.53 887.38L1077.33 1187.14L1038.83 1114.89L1107.8 869.32L1161.53 887.38Z" fill="#FFB400"/>
<path d="M1237.8 913.03L1132 1289.69L1092.32 1215.25L1182.44 894.41L1237.8 913.03Z" fill="#FFB400"/>
<path d="M864.27 787.42L941.31 813.33L919.49 891.01L864.27 787.42Z" fill="#FFB400"/>
<path d="M1023.84 1086.78L987.97 1019.48L1036.85 845.45L1086.9 862.29L1023.84 1086.78Z" fill="#FFB400"/>
<path d="M1312.43 938.13L1218.77 1271.58L1150.95 1325.25L1146.99 1317.81L1258.71 920.06L1312.43 938.13Z" fill="#FFB400"/>
<path d="M934.47 919.12L962.21 820.36L1015.94 838.42L972.98 991.36L934.47 919.12Z" fill="#FFB400"/>
<path d="M850.71 850.71L1137.39 1388.54L1528.84 1078.76L850.71 850.71Z" fill="#00BFBC"/>
<path d="M850.71 1701.42L1137.39 2239.25L1528.84 1929.47L850.71 1701.42Z" fill="#00BFBC"/>
<path d="M1383.39 1812.7L1318.63 2043.27L1248.19 2099.01L1333.34 1795.87L1383.39 1812.7Z" fill="#FFB400"/>
<path d="M1237.8 1763.74L1132 2140.4L1092.32 2065.96L1182.44 1745.12L1237.8 1763.74Z" fill="#FFB400"/>
<path d="M1312.43 1788.84L1218.77 2122.29L1150.95 2175.96L1146.99 2168.52L1258.71 1770.77L1312.43 1788.84Z" fill="#FFB400"/>
<path d="M1542.41 1866.18L1453.07 1936.87L1478.93 1844.83L1542.41 1866.18Z" fill="#FFB400"/>
<path d="M1458.02 1837.8L1423.65 1960.16L1348.05 2019.99L1404.29 1819.73L1458.02 1837.8Z" fill="#FFB400"/>
<path d="M1701.42 850.71L1988.1 1388.54L2379.55 1078.76L1701.42 850.71Z" fill="#00BFBC"/>
<path d="M1566.56 1488.16L1818.03 1334.22L1657.15 1154.1L1566.56 1488.16Z" fill="#FFB400"/>
<path d="M850.71 850.71L1137.39 1388.54L1528.84 1078.76L850.71 850.71Z" fill="#00BFBC"/>
<path d="M1701.42 1701.42L1988.1 2239.25L2379.55 1929.47L1701.42 1701.42Z" fill="#00BFBC"/>
<path d="M1566.56 2338.87L1818.03 2184.93L1657.15 2004.81L1566.56 2338.87Z" fill="#FFB400"/>
<path d="M1566.56 1488.16L1818.03 1334.22L1657.15 1154.1L1566.56 1488.16Z" fill="#FFB400"/>
<path d="M1440.09 1635.92L1510.9 1722.97L1514.33 1595.1L1440.09 1635.92Z" fill="#00BFBC"/>
<path d="M1870.43 1422.73L1832.53 1528.35L1943.75 1465.16L1870.43 1422.73Z" fill="#FFB400"/>
<path d="M2234.1 1812.7L2169.34 2043.27L2098.9 2099.01L2184.05 1795.87L2234.1 1812.7Z" fill="#FFB400"/>
<path d="M2012.24 1738.09L1928.04 2037.85L1889.54 1965.6L1958.51 1720.03L2012.24 1738.09Z" fill="#FFB400"/>
<path d="M2088.51 1763.74L1982.71 2140.4L1943.03 2065.96L2033.15 1745.12L2088.51 1763.74Z" fill="#FFB400"/>
<path d="M1714.98 1638.13L1792.02 1664.04L1770.2 1741.72L1714.98 1638.13Z" fill="#FFB400"/>
<path d="M1874.55 1937.49L1838.68 1870.18L1887.56 1696.16L1937.61 1713L1874.55 1937.49Z" fill="#FFB400"/>
<path d="M2163.14 1788.84L2069.48 2122.29L2001.66 2175.96L1997.69 2168.52L2109.41 1770.77L2163.14 1788.84Z" fill="#FFB400"/>
<path d="M1785.18 1769.83L1812.92 1671.07L1866.65 1689.13L1823.69 1842.07L1785.18 1769.83Z" fill="#FFB400"/>
<path d="M2393.12 1866.18L2303.78 1936.87L2329.64 1844.83L2393.12 1866.18Z" fill="#FFB400"/>
<path d="M2308.73 1837.8L2274.36 1960.16L2198.76 2019.99L2255 1819.73L2308.73 1837.8Z" fill="#FFB400"/>
<path d="M850.71 1701.42L1137.39 2239.25L1528.84 1929.47L850.71 1701.42Z" fill="#00BFBC"/>
<path d="M1383.39 1812.7L1318.63 2043.27L1248.19 2099.01L1333.34 1795.87L1383.39 1812.7Z" fill="#FFB400"/>
<path d="M1161.53 1738.09L1077.33 2037.85L1038.83 1965.6L1107.8 1720.03L1161.53 1738.09Z" fill="#FFB400"/>
<path d="M1237.8 1763.74L1132 2140.4L1092.32 2065.96L1182.44 1745.12L1237.8 1763.74Z" fill="#FFB400"/>
<path d="M864.27 1638.13L941.31 1664.04L919.49 1741.72L864.27 1638.13Z" fill="#FFB400"/>
<path d="M1023.84 1937.49L987.97 1870.18L1036.85 1696.16L1086.9 1713L1023.84 1937.49Z" fill="#FFB400"/>
<path d="M1312.43 1788.84L1218.77 2122.29L1150.95 2175.96L1146.99 2168.52L1258.71 1770.77L1312.43 1788.84Z" fill="#FFB400"/>
<path d="M934.47 1769.83L962.21 1671.07L1015.94 1689.13L972.98 1842.07L934.47 1769.83Z" fill="#FFB400"/>
<path d="M1542.41 1866.18L1453.07 1936.87L1478.93 1844.83L1542.41 1866.18Z" fill="#FFB400"/>
<path d="M1458.02 1837.8L1423.65 1960.16L1348.05 2019.99L1404.29 1819.73L1458.02 1837.8Z" fill="#FFB400"/>
<path d="M1566.56 2338.87L1818.03 2184.93L1657.15 2004.81L1566.56 2338.87Z" fill="#FFB400"/>
<path d="M1701.42 850.71L1988.1 1388.54L2379.55 1078.76L1701.42 850.71Z" fill="#00BFBC"/>
<path d="M1701.42 1701.42L1988.1 2239.25L2379.55 1929.47L1701.42 1701.42Z" fill="#00BFBC"/>
<path d="M2012.24 1738.09L1928.04 2037.85L1889.54 1965.6L1958.51 1720.03L2012.24 1738.09Z" fill="#FFB400"/>
<path d="M2088.51 1763.74L1982.71 2140.4L1943.03 2065.96L2033.15 1745.12L2088.51 1763.74Z" fill="#FFB400"/>
<path d="M1714.98 1638.13L1792.02 1664.04L1770.2 1741.72L1714.98 1638.13Z" fill="#FFB400"/>
<path d="M1874.55 1937.49L1838.68 1870.18L1887.56 1696.16L1937.61 1713L1874.55 1937.49Z" fill="#FFB400"/>
<path d="M2163.14 1788.84L2069.48 2122.29L2001.66 2175.96L1997.69 2168.52L2109.41 1770.77L2163.14 1788.84Z" fill="#FFB400"/>
<path d="M1785.18 1769.83L1812.92 1671.07L1866.65 1689.13L1823.69 1842.07L1785.18 1769.83Z" fill="#FFB400"/>
<path d="M0 850.71L286.68 1388.54L678.13 1078.76L0 850.71Z" fill="#00BFBC"/>
<path d="M0 1701.42L286.68 2239.25L678.13 1929.47L0 1701.42Z" fill="#00BFBC"/>
<path d="M532.68 1812.7L467.92 2043.27L397.48 2099.01L482.63 1795.87L532.68 1812.7Z" fill="#FFB400"/>
<path d="M387.09 1763.74L281.29 2140.4L241.61 2065.96L331.73 1745.12L387.09 1763.74Z" fill="#FFB400"/>
<path d="M461.72 1788.84L368.06 2122.29L300.24 2175.96L296.28 2168.52L408 1770.77L461.72 1788.84Z" fill="#FFB400"/>
<path d="M691.7 1866.18L602.36 1936.87L628.22 1844.83L691.7 1866.18Z" fill="#FFB400"/>
<path d="M607.31 1837.8L572.94 1960.16L497.34 2019.99L553.59 1819.73L607.31 1837.8Z" fill="#FFB400"/>
<path d="M850.71 850.71L1137.39 1388.54L1528.84 1078.76L850.71 850.71Z" fill="#00BFBC"/>
<path d="M715.85 1488.16L967.32 1334.22L806.44 1154.1L715.85 1488.16Z" fill="#FFB400"/>
<path d="M0 850.71L286.68 1388.54L678.13 1078.76L0 850.71Z" fill="#00BFBC"/>
<path d="M850.71 1701.42L1137.39 2239.25L1528.84 1929.47L850.71 1701.42Z" fill="#00BFBC"/>
<path d="M715.85 2338.87L967.32 2184.93L806.44 2004.81L715.85 2338.87Z" fill="#FFB400"/>
<path d="M715.85 1488.16L967.32 1334.22L806.44 1154.1L715.85 1488.16Z" fill="#FFB400"/>
<path d="M589.39 1635.92L660.19 1722.97L663.62 1595.1L589.39 1635.92Z" fill="#00BFBC"/>
<path d="M1019.72 1422.73L981.82 1528.35L1093.04 1465.16L1019.72 1422.73Z" fill="#FFB400"/>
<path d="M1383.39 1812.7L1318.63 2043.27L1248.19 2099.01L1333.34 1795.87L1383.39 1812.7Z" fill="#FFB400"/>
<path d="M1161.53 1738.09L1077.33 2037.85L1038.83 1965.6L1107.8 1720.03L1161.53 1738.09Z" fill="#FFB400"/>
<path d="M1237.8 1763.74L1132 2140.4L1092.32 2065.96L1182.44 1745.12L1237.8 1763.74Z" fill="#FFB400"/>
<path d="M864.27 1638.13L941.31 1664.04L919.49 1741.72L864.27 1638.13Z" fill="#FFB400"/>
<path d="M1023.84 1937.49L987.97 1870.18L1036.85 1696.16L1086.9 1713L1023.84 1937.49Z" fill="#FFB400"/>
<path d="M1312.43 1788.84L1218.77 2122.29L1150.95 2175.96L1146.99 2168.52L1258.71 1770.77L1312.43 1788.84Z" fill="#FFB400"/>
<path d="M934.47 1769.83L962.21 1671.07L1015.94 1689.13L972.98 1842.07L934.47 1769.83Z" fill="#FFB400"/>
<path d="M1542.41 1866.18L1453.07 1936.87L1478.93 1844.83L1542.41 1866.18Z" fill="#FFB400"/>
<path d="M1458.02 1837.8L1423.65 1960.16L1348.05 2019.99L1404.29 1819.73L1458.02 1837.8Z" fill="#FFB400"/>
<path d="M0 1701.42L286.68 2239.25L678.13 1929.47L0 1701.42Z" fill="#00BFBC"/>
<path d="M532.68 1812.7L467.92 2043.27L397.48 2099.01L482.63 1795.87L532.68 1812.7Z" fill="#FFB400"/>
<path d="M310.82 1738.09L226.62 2037.85L188.12 1965.6L257.1 1720.03L310.82 1738.09Z" fill="#FFB400"/>
<path d="M387.09 1763.74L281.29 2140.4L241.61 2065.96L331.73 1745.12L387.09 1763.74Z" fill="#FFB400"/>
<path d="M13.5601 1638.13L90.6001 1664.04L68.7801 1741.72L13.5601 1638.13Z" fill="#FFB400"/>
<path d="M173.13 1937.49L137.26 1870.18L186.14 1696.16L236.19 1713L173.13 1937.49Z" fill="#FFB400"/>
<path d="M461.72 1788.84L368.06 2122.29L300.24 2175.96L296.28 2168.52L408 1770.77L461.72 1788.84Z" fill="#FFB400"/>
<path d="M83.76 1769.83L111.51 1671.07L165.23 1689.13L122.27 1842.07L83.76 1769.83Z" fill="#FFB400"/>
<path d="M691.7 1866.18L602.36 1936.87L628.22 1844.83L691.7 1866.18Z" fill="#FFB400"/>
<path d="M607.31 1837.8L572.94 1960.16L497.34 2019.99L553.59 1819.73L607.31 1837.8Z" fill="#FFB400"/>
<path d="M715.85 2338.87L967.32 2184.93L806.44 2004.81L715.85 2338.87Z" fill="#FFB400"/>
<path d="M850.71 850.71L1137.39 1388.54L1528.84 1078.76L850.71 850.71Z" fill="#00BFBC"/>
<path d="M850.71 1701.42L1137.39 2239.25L1528.84 1929.47L850.71 1701.42Z" fill="#00BFBC"/>
<path d="M1161.53 1738.09L1077.33 2037.85L1038.83 1965.6L1107.8 1720.03L1161.53 1738.09Z" fill="#FFB400"/>
<path d="M1237.8 1763.74L1132 2140.4L1092.32 2065.96L1182.44 1745.12L1237.8 1763.74Z" fill="#FFB400"/>
<path d="M864.27 1638.13L941.31 1664.04L919.49 1741.72L864.27 1638.13Z" fill="#FFB400"/>
<path d="M1023.84 1937.49L987.97 1870.18L1036.85 1696.16L1086.9 1713L1023.84 1937.49Z" fill="#FFB400"/>
<path d="M1312.43 1788.84L1218.77 2122.29L1150.95 2175.96L1146.99 2168.52L1258.71 1770.77L1312.43 1788.84Z" fill="#FFB400"/>
<path d="M934.47 1769.83L962.21 1671.07L1015.94 1689.13L972.98 1842.07L934.47 1769.83Z" fill="#FFB400"/>
</g>
<defs>
<clipPath id="clip0">
<rect width="2393.12" height="2338.87" fill="white"/>
</clipPath>
</defs>
</svg>
